Coordinates
version=1
nRows=22
nColumns=24
inDegrees=yes

Units are S.I. units (second, meters, Newtons, ...)
Angles are in degrees.

endheader
time	pelvis_tilt	pelvis_list	pelvis_rotation	pelvis_tx	pelvis_ty	pelvis_tz	hip_flexion_r	hip_adduction_r	hip_rotation_r	knee_angle_r	ankle_angle_r	subtalar_angle_r	mtp_angle_r	hip_flexion_l	hip_adduction_l	hip_rotation_l	knee_angle_l	ankle_angle_l	subtalar_angle_l	mtp_angle_l	lumbar_extension	lumbar_bending	lumbar_rotation
      0.47100000	     -3.58721455	      0.78339138	      4.54985702	     -0.73606799	      0.89630693	      0.32030508	     31.51817341	      0.27656317	     -6.25388565	    -18.67766949	      1.47912280	      0.18976385	      3.30058858	    -15.13218469	      1.79559080	      2.55943808	     -3.98153876	     11.39021393	     -1.85633600	      7.97733938	     -6.88912098	     -2.69771889	     -9.31961647
      0.47516667	     -3.64526687	      0.80036101	      4.64314360	     -0.73021967	      0.89503984	      0.32047193	     31.44865203	      0.35455196	     -5.94144922	    -18.32991303	      1.43899890	     -0.11989093	      3.25276451	    -15.16754192	      1.73752595	      2.65365850	     -4.61581843	     11.61661014	     -1.67944610	      8.03118317	     -6.80302408	     -2.69452519	     -9.33579095
      0.47933333	     -3.68422765	      0.80084832	      4.71514343	     -0.72434380	      0.89381708	      0.32067804	     31.37040501	      0.45862350	     -5.64171913	    -18.10389153	      1.41166910	     -0.45162227	      3.18611220	    -15.16255878	      1.66103524	      2.58556581	     -5.38225571	     11.87018532	     -1.34629834	      8.16042356	     -6.73444893	     -2.66566986	     -9.33436803
      0.48350000	     -3.75704572	      0.80301553	      4.79768079	     -0.71845743	      0.89259302	      0.32089088	     31.33074093	      0.55541684	     -5.35238146	    -17.97637220	      1.30914720	     -0.81980014	      3.14632202	    -15.11548916	      1.58962014	      2.63216513	     -6.15760917	     12.08086589	     -1.13840188	      8.27878572	     -6.60760206	     -2.65889818	     -9.30415620
      0.48766667	     -3.82786347	      0.78952680	      4.86393590	     -0.71254729	      0.89140631	      0.32115636	     31.30065609	      0.67875621	     -5.06457558	    -17.96145658	      1.17120896	     -1.24761934	      3.11281632	    -15.02579222	      1.50076298	      2.59344706	     -7.02239987	     12.28432001	     -0.85339783	      8.44115053	     -6.48973038	     -2.62233782	     -9.25645409
      0.49183333	     -3.90458361	      0.76527699	      4.92149264	     -0.70662499	      0.89024239	      0.32144652	     31.29240873	      0.81517345	     -4.79671170	    -18.06043296	      1.00274516	     -1.70313531	      3.08859316	    -14.88657118	      1.40181840	      2.51660716	     -7.97865961	     12.46873342	     -0.54256928	      8.65711003	     -6.36220262	     -2.57246697	     -9.19232989
      0.49600000	     -3.94379290	      0.71657799	      4.95979790	     -0.70066552	      0.88916486	      0.32179579	     31.24994215	      0.99066196	     -4.53599835	    -18.24832745	      0.83522007	     -2.17080258	      3.07231183	    -14.75290536	      1.26918897	      2.34595052	     -9.00704753	     12.70138081	     -0.09127249	      9.13140376	     -6.28349623	     -2.48684888	     -9.10559918
      0.50016667	     -4.07060429	      0.70045133	      5.00245225	     -0.69472350	      0.88801748	      0.32212960	     31.33251549	      1.11887596	     -4.30023111	    -18.56824852	      0.60371204	     -2.66738579	      3.07223594	    -14.51406465	      1.19421522	      2.34492202	    -10.05118279	     12.73633963	      0.02122783	      9.38400784	     -6.07885122	     -2.45319180	     -9.00498622
      0.50433333	     -4.11829637	      0.62669303	      5.02122685	     -0.68872700	      0.88700782	      0.32255183	     31.32457072	      1.32961925	     -4.06349635	    -18.93828361	      0.39873238	     -3.20685076	      3.10695499	    -14.29086548	      1.03311827	      2.10874761	    -11.24143073	     12.92181243	      0.50213534	     10.05012851	     -5.98311941	     -2.33724842	     -8.87170954
      0.50850000	     -4.25824739	      0.60772028	      5.05564471	     -0.68278230	      0.88593306	      0.32290891	     31.45833390	      1.45646838	     -3.86897832	    -19.45360178	      0.20753576	     -3.66489701	      3.11792492	    -13.97501967	      0.96927585	      2.18001521	    -12.40937959	     12.91639012	      0.46222444	     10.24274581	     -5.76685451	     -2.29550563	     -8.74938101
      0.51266667	     -4.34782072	      0.52106890	      5.06812298	     -0.67674636	      0.88497178	      0.32337539	     31.52205071	      1.67281872	     -3.69465745	    -19.97943929	     -0.01068365	     -4.18558005	      3.54757553	    -13.63412290	      0.79504436	      1.92955261	    -13.72489907	     12.85097494	      0.80525158	     14.68322442	     -5.58345759	     -2.16872158	     -8.65451057
      0.51683333	     -4.46034056	      0.49685485	      5.04658540	     -0.67077125	      0.88400906	      0.32385358	     31.66166040	      1.83444376	     -3.47752649	    -20.65555364	     -0.12423352	     -4.64724417	      3.54825914	    -13.27661538	      0.73025436	      1.88585676	    -15.03811005	     12.76385919	      0.81461387	     14.73165770	     -5.40557317	     -2.13072980	     -8.44220704
      0.52100000	     -4.58182581	      0.44088450	      5.02534154	     -0.66477057	      0.88308806	      0.32434505	     31.81294844	      2.02253521	     -3.30016654	    -21.36815541	     -0.21268521	     -5.09464029	      3.55570650	    -12.84672109	      0.62194978	      1.75563746	    -16.47174212	     12.63202495	      0.93365337	     14.82360842	     -5.19363198	     -2.04272365	     -8.24045625
      0.52516667	     -4.68840004	      0.37342122	      4.98921731	     -0.65875261	      0.88224256	      0.32487610	     31.95700668	      2.22630941	     -3.13702717	    -22.12966658	     -0.25214863	     -5.50183390	      3.56972301	    -12.39518445	      0.49785368	      1.58666843	    -17.96901081	     12.44504072	      1.08684541	     14.96441069	     -5.00132417	     -1.94091667	     -8.03211222
      0.52933333	     -4.73975357	      0.24088663	      4.96757893	     -0.65269460	      0.88156638	      0.32543957	     32.00581640	      2.49860215	     -3.00606042	    -22.83251492	     -0.36712769	     -6.03276997	      3.80686393	    -11.93789976	      0.27247437	      1.31964533	    -19.57083158	     12.20508673	      1.33392584	     17.79788488	     -4.86889719	     -1.76123606	     -7.85552184
      0.53350000	     -4.84643878	      0.20255437	      4.87723629	     -0.64668042	      0.88080597	      0.32600932	     32.19440305	      2.68217362	     -2.84099839	    -23.74248154	     -0.14727187	     -6.22038920	      3.81831874	    -11.43049984	      0.20305198	      1.15997873	    -21.16018250	     11.82148607	      1.28668211	     17.86766205	     -4.67294910	     -1.67975285	     -7.61924487
      0.53766667	     -4.92794613	      0.12267769	      4.81345010	     -0.64065923	      0.88017919	      0.32655577	     32.32701338	      2.89141677	     -2.73256524	    -24.60648423	      0.04063607	     -6.45225787	      3.82809291	    -10.88706364	      0.07312218	      0.99010323	    -22.84547601	     11.40508232	      1.27125093	     17.97140263	     -4.50098621	     -1.55004445	     -7.38537508
      0.54183333	     -4.99642001	      0.04840788	      4.73470912	     -0.63466876	      0.87961669	      0.32713819	     32.44861206	      3.09816113	     -2.62999600	    -25.48304530	      0.22743172	     -6.64497280	      3.83729133	    -10.29931265	     -0.06168010	      0.75168575	    -24.63239637	     10.95357962	      1.31269083	     18.16855390	     -4.35465521	     -1.45509550	     -7.11762224
      0.54600000	     -5.04472369	     -0.05834294	      4.64963065	     -0.62865414	      0.87914829	      0.32771936	     32.52825590	      3.33880207	     -2.53483664	    -26.33581724	      0.51902575	     -6.80701342	      3.84482201	     -9.69886337	     -0.23415486	      0.50914341	    -26.46340389	     10.40260704	      1.29055806	     18.41420555	     -4.22382183	     -1.29352657	     -6.86727121
      0.55016667	     -5.07459063	     -0.17493641	      4.55624976	     -0.62264026	      0.87878470	      0.32830086	     32.56650077	      3.58856850	     -2.45024972	    -27.15483236	      0.86374207	     -6.91703231	      3.84940941	     -9.07868440	     -0.42108286	      0.25148223	    -28.33885690	      9.75840002	      1.22425554	     18.68121476	     -4.11223641	     -1.11372269	     -6.62374992
      0.55433333	     -5.02614921	     -0.35586777	      4.46858859	     -0.61658489	      0.87862477	      0.32887960	     32.47478414	      3.90082448	     -2.41509665	    -27.88749274	      1.23353156	     -7.01254647	      3.64837543	     -8.50431530	     -0.70703474	     -0.06180901	    -30.25201567	      8.98452169	      1.16153224	     22.79738376	     -4.10052399	     -0.83406461	     -6.17867923
      0.55850000	     -5.03970083	     -0.47461333	      4.34917116	     -0.61061565	      0.87839929	      0.32947714	     32.46323636	      4.15804529	     -2.31996582	    -28.65526975	      1.67603774	     -7.05231899	      3.65906458	     -7.82630395	     -0.90394549	     -0.35555251	    -32.21853557	      8.18843065	      0.96982817	     22.84413123	     -4.00830313	     -0.65672129	     -6.11763096
